<mxfile host="app.diagrams.net" modified="2024-02-01T21:31:23.295Z" agent="Mozilla/5.0 (Windows NT 10.0; Win64; x64; rv:122.0) Gecko/20100101 Firefox/122.0" etag="0msL8BORs0QG0be_Dtam" version="23.1.0" type="github">
  <diagram name="Page-1" id="p2PEQp923LsT_1YNIgcw">
    <mxGraphModel dx="2390" dy="1290" grid="1" gridSize="10" guides="1" tooltips="1" connect="1" arrows="1" fold="1" page="1" pageScale="1" pageWidth="1654" pageHeight="2336" math="0" shadow="0">
      <root>
        <mxCell id="0" />
        <mxCell id="1" parent="0" />
        <mxCell id="4TUbJtkzLN--Y57PWhq1-3" value="&lt;font style=&quot;font-size: 20px;&quot;&gt;&lt;b&gt;НАЧАЛО НА СИСТЕМАТА&lt;/b&gt;&lt;/font&gt;" style="rounded=0;whiteSpace=wrap;html=1;" vertex="1" parent="1">
          <mxGeometry x="80" y="40" width="240" height="160" as="geometry" />
        </mxCell>
        <mxCell id="4TUbJtkzLN--Y57PWhq1-18" style="edgeStyle=orthogonalEdgeStyle;rounded=0;orthogonalLoop=1;jettySize=auto;html=1;exitX=0.5;exitY=1;exitDx=0;exitDy=0;" edge="1" parent="1" source="4TUbJtkzLN--Y57PWhq1-4" target="4TUbJtkzLN--Y57PWhq1-15">
          <mxGeometry relative="1" as="geometry" />
        </mxCell>
        <mxCell id="4TUbJtkzLN--Y57PWhq1-4" value="&lt;font style=&quot;font-size: 20px;&quot;&gt;&lt;b&gt;Проверка за нови полети &lt;/b&gt;&lt;/font&gt;" style="rounded=0;whiteSpace=wrap;html=1;" vertex="1" parent="1">
          <mxGeometry x="80" y="320" width="240" height="160" as="geometry" />
        </mxCell>
        <mxCell id="4TUbJtkzLN--Y57PWhq1-20" style="edgeStyle=orthogonalEdgeStyle;rounded=0;orthogonalLoop=1;jettySize=auto;html=1;exitX=0.5;exitY=1;exitDx=0;exitDy=0;entryX=0.5;entryY=0;entryDx=0;entryDy=0;" edge="1" parent="1" source="4TUbJtkzLN--Y57PWhq1-5" target="4TUbJtkzLN--Y57PWhq1-6">
          <mxGeometry relative="1" as="geometry" />
        </mxCell>
        <mxCell id="4TUbJtkzLN--Y57PWhq1-5" value="&lt;font style=&quot;font-size: 20px;&quot;&gt;&lt;b&gt;Подготовка за извеждане на информацията &lt;/b&gt;&lt;/font&gt;" style="rounded=0;whiteSpace=wrap;html=1;" vertex="1" parent="1">
          <mxGeometry x="80" y="880" width="240" height="160" as="geometry" />
        </mxCell>
        <mxCell id="4TUbJtkzLN--Y57PWhq1-6" value="&lt;font style=&quot;font-size: 20px;&quot;&gt;&lt;b&gt;Извеждане на информацията &lt;/b&gt;&lt;/font&gt;" style="rounded=0;whiteSpace=wrap;html=1;" vertex="1" parent="1">
          <mxGeometry x="80" y="1160" width="240" height="160" as="geometry" />
        </mxCell>
        <mxCell id="4TUbJtkzLN--Y57PWhq1-7" value="&lt;div&gt;&lt;font style=&quot;font-size: 20px;&quot;&gt;&lt;b&gt;Инициализация на системата и&amp;nbsp;&lt;/b&gt;&lt;/font&gt;&lt;/div&gt;&lt;div&gt;&lt;font style=&quot;font-size: 20px;&quot;&gt;&lt;b&gt;зареждане на данни &lt;/b&gt;&lt;/font&gt;&lt;/div&gt;" style="rounded=0;whiteSpace=wrap;html=1;" vertex="1" parent="1">
          <mxGeometry x="440" y="40" width="240" height="160" as="geometry" />
        </mxCell>
        <mxCell id="4TUbJtkzLN--Y57PWhq1-21" style="edgeStyle=orthogonalEdgeStyle;rounded=0;orthogonalLoop=1;jettySize=auto;html=1;exitX=0.5;exitY=1;exitDx=0;exitDy=0;" edge="1" parent="1" source="4TUbJtkzLN--Y57PWhq1-8" target="4TUbJtkzLN--Y57PWhq1-9">
          <mxGeometry relative="1" as="geometry" />
        </mxCell>
        <mxCell id="4TUbJtkzLN--Y57PWhq1-8" value="&lt;div&gt;&lt;font style=&quot;font-size: 20px;&quot;&gt;&lt;b&gt;Зареждане на&amp;nbsp;&lt;/b&gt;&lt;/font&gt;&lt;/div&gt;&lt;div&gt;&lt;font style=&quot;font-size: 20px;&quot;&gt;&lt;b&gt;статус на полетите &lt;/b&gt;&lt;/font&gt;&lt;/div&gt;" style="rounded=0;whiteSpace=wrap;html=1;" vertex="1" parent="1">
          <mxGeometry x="440" y="320" width="240" height="160" as="geometry" />
        </mxCell>
        <mxCell id="4TUbJtkzLN--Y57PWhq1-22" style="edgeStyle=orthogonalEdgeStyle;rounded=0;orthogonalLoop=1;jettySize=auto;html=1;exitX=0.5;exitY=1;exitDx=0;exitDy=0;entryX=0.5;entryY=0;entryDx=0;entryDy=0;" edge="1" parent="1" source="4TUbJtkzLN--Y57PWhq1-9" target="4TUbJtkzLN--Y57PWhq1-10">
          <mxGeometry relative="1" as="geometry" />
        </mxCell>
        <mxCell id="4TUbJtkzLN--Y57PWhq1-9" value="&lt;div&gt;&lt;font style=&quot;font-size: 20px;&quot;&gt;&lt;b&gt;Извеждане на&lt;br&gt;&lt;/b&gt;&lt;/font&gt;&lt;/div&gt;&lt;div&gt;&lt;font style=&quot;font-size: 20px;&quot;&gt;&lt;b&gt;статус на полетите&lt;br&gt; &lt;/b&gt;&lt;/font&gt;&lt;/div&gt;" style="rounded=0;whiteSpace=wrap;html=1;" vertex="1" parent="1">
          <mxGeometry x="440" y="600" width="240" height="160" as="geometry" />
        </mxCell>
        <mxCell id="4TUbJtkzLN--Y57PWhq1-23" style="edgeStyle=orthogonalEdgeStyle;rounded=0;orthogonalLoop=1;jettySize=auto;html=1;exitX=0.5;exitY=1;exitDx=0;exitDy=0;" edge="1" parent="1" source="4TUbJtkzLN--Y57PWhq1-10" target="4TUbJtkzLN--Y57PWhq1-16">
          <mxGeometry relative="1" as="geometry" />
        </mxCell>
        <mxCell id="4TUbJtkzLN--Y57PWhq1-10" value="&lt;div style=&quot;font-size: 22px;&quot;&gt;&lt;b&gt;&lt;font style=&quot;font-size: 22px;&quot;&gt;&lt;code&gt;Известяване за промени в полетите&lt;/code&gt;&lt;/font&gt;&lt;/b&gt;&lt;/div&gt;&lt;div&gt;&lt;b&gt;&lt;code&gt;&lt;/code&gt;&lt;/b&gt;&lt;/div&gt;&lt;div&gt;&lt;code&gt;&lt;/code&gt;&lt;/div&gt;" style="rounded=0;whiteSpace=wrap;html=1;" vertex="1" parent="1">
          <mxGeometry x="440" y="880" width="240" height="160" as="geometry" />
        </mxCell>
        <mxCell id="4TUbJtkzLN--Y57PWhq1-11" value="&lt;div&gt;&lt;font style=&quot;font-size: 20px;&quot;&gt;&lt;b&gt;Създаване на данни&lt;/b&gt;&lt;/font&gt;&lt;/div&gt;&lt;div&gt;&lt;font style=&quot;font-size: 20px;&quot;&gt;&lt;b&gt;за полетите&lt;br&gt;&lt;/b&gt;&lt;/font&gt;&lt;/div&gt;" style="rounded=0;whiteSpace=wrap;html=1;" vertex="1" parent="1">
          <mxGeometry x="800" y="40" width="240" height="160" as="geometry" />
        </mxCell>
        <mxCell id="4TUbJtkzLN--Y57PWhq1-24" style="edgeStyle=orthogonalEdgeStyle;rounded=0;orthogonalLoop=1;jettySize=auto;html=1;exitX=0.5;exitY=1;exitDx=0;exitDy=0;entryX=0.5;entryY=0;entryDx=0;entryDy=0;" edge="1" parent="1" source="4TUbJtkzLN--Y57PWhq1-12" target="4TUbJtkzLN--Y57PWhq1-13">
          <mxGeometry relative="1" as="geometry" />
        </mxCell>
        <mxCell id="4TUbJtkzLN--Y57PWhq1-12" value="&lt;div&gt;&lt;font style=&quot;font-size: 20px;&quot;&gt;&lt;b&gt;Обновяване на&amp;nbsp;&lt;/b&gt;&lt;/font&gt;&lt;/div&gt;&lt;div&gt;&lt;font style=&quot;font-size: 20px;&quot;&gt;&lt;b&gt;статуса на полетите &lt;/b&gt;&lt;/font&gt;&lt;/div&gt;" style="rounded=0;whiteSpace=wrap;html=1;" vertex="1" parent="1">
          <mxGeometry x="800" y="320" width="240" height="160" as="geometry" />
        </mxCell>
        <mxCell id="4TUbJtkzLN--Y57PWhq1-25" style="edgeStyle=orthogonalEdgeStyle;rounded=0;orthogonalLoop=1;jettySize=auto;html=1;exitX=0.5;exitY=1;exitDx=0;exitDy=0;" edge="1" parent="1" source="4TUbJtkzLN--Y57PWhq1-13" target="4TUbJtkzLN--Y57PWhq1-14">
          <mxGeometry relative="1" as="geometry" />
        </mxCell>
        <mxCell id="4TUbJtkzLN--Y57PWhq1-13" value="&lt;div style=&quot;font-size: 20px;&quot;&gt;&lt;b&gt;&lt;font style=&quot;font-size: 20px;&quot;&gt;Архивиране на&lt;/font&gt;&lt;/b&gt;&lt;/div&gt;&lt;div style=&quot;font-size: 20px;&quot;&gt;&lt;b&gt;&lt;font style=&quot;font-size: 20px;&quot;&gt;&amp;nbsp;завършените полети &lt;/font&gt;&lt;/b&gt;&lt;/div&gt;" style="rounded=0;whiteSpace=wrap;html=1;" vertex="1" parent="1">
          <mxGeometry x="800" y="600" width="240" height="160" as="geometry" />
        </mxCell>
        <mxCell id="4TUbJtkzLN--Y57PWhq1-26" style="edgeStyle=orthogonalEdgeStyle;rounded=0;orthogonalLoop=1;jettySize=auto;html=1;exitX=0.5;exitY=1;exitDx=0;exitDy=0;entryX=0.5;entryY=0;entryDx=0;entryDy=0;" edge="1" parent="1" source="4TUbJtkzLN--Y57PWhq1-14" target="4TUbJtkzLN--Y57PWhq1-17">
          <mxGeometry relative="1" as="geometry" />
        </mxCell>
        <mxCell id="4TUbJtkzLN--Y57PWhq1-14" value="&lt;div style=&quot;font-size: 20px;&quot;&gt;&lt;b&gt;&lt;font style=&quot;font-size: 20px;&quot;&gt;потребителски интерфейс&lt;/font&gt;&lt;/b&gt;&lt;/div&gt;&lt;div style=&quot;font-size: 20px;&quot;&gt;&lt;b&gt;&lt;font style=&quot;font-size: 20px;&quot;&gt;&amp;nbsp;за управление и&lt;/font&gt;&lt;/b&gt;&lt;/div&gt;&lt;div style=&quot;font-size: 20px;&quot;&gt;&lt;b&gt;&lt;font style=&quot;font-size: 20px;&quot;&gt;&amp;nbsp;следене на статуса на полетите&lt;/font&gt;&lt;/b&gt;&lt;/div&gt;" style="rounded=0;whiteSpace=wrap;html=1;" vertex="1" parent="1">
          <mxGeometry x="800" y="880" width="240" height="160" as="geometry" />
        </mxCell>
        <mxCell id="4TUbJtkzLN--Y57PWhq1-19" style="edgeStyle=orthogonalEdgeStyle;rounded=0;orthogonalLoop=1;jettySize=auto;html=1;exitX=0.5;exitY=1;exitDx=0;exitDy=0;entryX=0.5;entryY=0;entryDx=0;entryDy=0;" edge="1" parent="1" source="4TUbJtkzLN--Y57PWhq1-15" target="4TUbJtkzLN--Y57PWhq1-5">
          <mxGeometry relative="1" as="geometry" />
        </mxCell>
        <mxCell id="4TUbJtkzLN--Y57PWhq1-15" value="&lt;font style=&quot;font-size: 20px;&quot;&gt;&lt;b&gt;Анализ и филтриране на полетите &lt;/b&gt;&lt;/font&gt;" style="rounded=0;whiteSpace=wrap;html=1;" vertex="1" parent="1">
          <mxGeometry x="80" y="600" width="240" height="150" as="geometry" />
        </mxCell>
        <mxCell id="4TUbJtkzLN--Y57PWhq1-16" value="&lt;div style=&quot;font-size: 20px;&quot;&gt;&lt;b&gt;&lt;font style=&quot;font-size: 20px;&quot;&gt;Потребителски интерфейс&amp;nbsp;&lt;/font&gt;&lt;/b&gt;&lt;/div&gt;&lt;div style=&quot;font-size: 20px;&quot;&gt;&lt;b&gt;&lt;font style=&quot;font-size: 20px;&quot;&gt;за управление и следене &lt;/font&gt;&lt;/b&gt;&lt;/div&gt;" style="rounded=0;whiteSpace=wrap;html=1;" vertex="1" parent="1">
          <mxGeometry x="440" y="1160" width="240" height="160" as="geometry" />
        </mxCell>
        <mxCell id="4TUbJtkzLN--Y57PWhq1-17" value="&lt;font style=&quot;font-size: 20px;&quot;&gt;&lt;b&gt;Край на процеса&lt;br&gt;&lt;/b&gt;&lt;/font&gt;" style="rounded=0;whiteSpace=wrap;html=1;" vertex="1" parent="1">
          <mxGeometry x="800" y="1160" width="240" height="160" as="geometry" />
        </mxCell>
        <mxCell id="4TUbJtkzLN--Y57PWhq1-47" value="" style="endArrow=none;dashed=1;html=1;dashPattern=1 3;strokeWidth=2;rounded=0;exitX=1;exitY=0.5;exitDx=0;exitDy=0;" edge="1" parent="1">
          <mxGeometry width="50" height="50" relative="1" as="geometry">
            <mxPoint x="320" y="380" as="sourcePoint" />
            <mxPoint x="360" y="380" as="targetPoint" />
          </mxGeometry>
        </mxCell>
        <mxCell id="4TUbJtkzLN--Y57PWhq1-48" value="" style="endArrow=none;dashed=1;html=1;dashPattern=1 3;strokeWidth=2;rounded=0;entryX=0;entryY=0.5;entryDx=0;entryDy=0;" edge="1" parent="1">
          <mxGeometry width="50" height="50" relative="1" as="geometry">
            <mxPoint x="400" y="380" as="sourcePoint" />
            <mxPoint x="440" y="380" as="targetPoint" />
          </mxGeometry>
        </mxCell>
        <mxCell id="4TUbJtkzLN--Y57PWhq1-49" value="&lt;font style=&quot;font-size: 20px;&quot;&gt;(2)&lt;/font&gt;" style="text;html=1;align=center;verticalAlign=middle;resizable=0;points=[];autosize=1;strokeColor=none;fillColor=none;" vertex="1" parent="1">
          <mxGeometry x="351" y="360" width="50" height="40" as="geometry" />
        </mxCell>
        <mxCell id="4TUbJtkzLN--Y57PWhq1-50" value="" style="endArrow=none;dashed=1;html=1;dashPattern=1 3;strokeWidth=2;rounded=0;exitX=1;exitY=0.5;exitDx=0;exitDy=0;" edge="1" parent="1">
          <mxGeometry width="50" height="50" relative="1" as="geometry">
            <mxPoint x="320" y="660" as="sourcePoint" />
            <mxPoint x="360" y="660" as="targetPoint" />
          </mxGeometry>
        </mxCell>
        <mxCell id="4TUbJtkzLN--Y57PWhq1-51" value="" style="endArrow=none;dashed=1;html=1;dashPattern=1 3;strokeWidth=2;rounded=0;entryX=0;entryY=0.5;entryDx=0;entryDy=0;" edge="1" parent="1">
          <mxGeometry width="50" height="50" relative="1" as="geometry">
            <mxPoint x="400" y="660" as="sourcePoint" />
            <mxPoint x="440" y="660" as="targetPoint" />
          </mxGeometry>
        </mxCell>
        <mxCell id="4TUbJtkzLN--Y57PWhq1-52" value="&lt;font style=&quot;font-size: 20px;&quot;&gt;(3)&lt;/font&gt;" style="text;html=1;align=center;verticalAlign=middle;resizable=0;points=[];autosize=1;strokeColor=none;fillColor=none;" vertex="1" parent="1">
          <mxGeometry x="351" y="640" width="50" height="40" as="geometry" />
        </mxCell>
        <mxCell id="4TUbJtkzLN--Y57PWhq1-53" value="" style="endArrow=none;dashed=1;html=1;dashPattern=1 3;strokeWidth=2;rounded=0;exitX=1;exitY=0.5;exitDx=0;exitDy=0;" edge="1" parent="1">
          <mxGeometry width="50" height="50" relative="1" as="geometry">
            <mxPoint x="320" y="940" as="sourcePoint" />
            <mxPoint x="360" y="940" as="targetPoint" />
          </mxGeometry>
        </mxCell>
        <mxCell id="4TUbJtkzLN--Y57PWhq1-54" value="" style="endArrow=none;dashed=1;html=1;dashPattern=1 3;strokeWidth=2;rounded=0;entryX=0;entryY=0.5;entryDx=0;entryDy=0;" edge="1" parent="1">
          <mxGeometry width="50" height="50" relative="1" as="geometry">
            <mxPoint x="400" y="940" as="sourcePoint" />
            <mxPoint x="440" y="940" as="targetPoint" />
          </mxGeometry>
        </mxCell>
        <mxCell id="4TUbJtkzLN--Y57PWhq1-55" value="&lt;font style=&quot;font-size: 20px;&quot;&gt;(4)&lt;/font&gt;" style="text;html=1;align=center;verticalAlign=middle;resizable=0;points=[];autosize=1;strokeColor=none;fillColor=none;" vertex="1" parent="1">
          <mxGeometry x="351" y="920" width="50" height="40" as="geometry" />
        </mxCell>
        <mxCell id="4TUbJtkzLN--Y57PWhq1-27" value="" style="endArrow=none;dashed=1;html=1;dashPattern=1 3;strokeWidth=2;rounded=0;exitX=1.006;exitY=0.368;exitDx=0;exitDy=0;exitPerimeter=0;" edge="1" parent="1" source="4TUbJtkzLN--Y57PWhq1-3">
          <mxGeometry width="50" height="50" relative="1" as="geometry">
            <mxPoint x="770" y="570" as="sourcePoint" />
            <mxPoint x="360" y="100" as="targetPoint" />
          </mxGeometry>
        </mxCell>
        <mxCell id="4TUbJtkzLN--Y57PWhq1-28" value="" style="endArrow=none;dashed=1;html=1;dashPattern=1 3;strokeWidth=2;rounded=0;entryX=0.003;entryY=0.372;entryDx=0;entryDy=0;entryPerimeter=0;" edge="1" parent="1" target="4TUbJtkzLN--Y57PWhq1-7">
          <mxGeometry width="50" height="50" relative="1" as="geometry">
            <mxPoint x="400" y="100" as="sourcePoint" />
            <mxPoint x="370" y="110" as="targetPoint" />
          </mxGeometry>
        </mxCell>
        <mxCell id="4TUbJtkzLN--Y57PWhq1-30" value="&lt;font style=&quot;font-size: 20px;&quot;&gt;(1)&lt;/font&gt;" style="text;html=1;align=center;verticalAlign=middle;resizable=0;points=[];autosize=1;strokeColor=none;fillColor=none;" vertex="1" parent="1">
          <mxGeometry x="351" y="80" width="50" height="40" as="geometry" />
        </mxCell>
      </root>
    </mxGraphModel>
  </diagram>
</mxfile>
